<?xml version="1.0" encoding="UTF-8"?>
<!DOCTYPE svg PUBLIC "-//W3C//DTD SVG 1.1//EN" "http://www.w3.org/Graphics/SVG/1.1/DTD/svg11.dtd">
<!-- Creator: CorelDRAW 2019 (64-Bit) -->
<svg xmlns="http://www.w3.org/2000/svg" xml:space="preserve" width="334px" height="39px" version="1.1" style="shape-rendering:geometricPrecision; text-rendering:geometricPrecision; image-rendering:optimizeQuality; fill-rule:evenodd; clip-rule:evenodd"
viewBox="0 0 348.676 40.97"
 xmlns:xlink="http://www.w3.org/1999/xlink">
 <defs>
  <style type="text/css">
   <![CDATA[
    .str5 {stroke:#142688;stroke-width:0.3;stroke-miterlimit:22.9256}
    .str6 {stroke:#599ED3;stroke-width:0.3;stroke-miterlimit:22.9256}
    .str2 {stroke:#EA001B;stroke-width:0.3;stroke-miterlimit:22.9256}
    .str0 {stroke:#EEEEEE;stroke-width:0.3;stroke-miterlimit:22.9256}
    .str4 {stroke:#F1F1F1;stroke-width:0.3;stroke-miterlimit:22.9256}
    .str1 {stroke:#F79E1B;stroke-width:0.3;stroke-miterlimit:22.9256}
    .str3 {stroke:#FF5F00;stroke-width:0.3;stroke-miterlimit:22.9256}
    .str7 {stroke:#FFC800;stroke-width:0.3;stroke-miterlimit:22.9256}
    .fil11 {fill:black}
    .fil16 {fill:#00E2C6}
    .fil6 {fill:#142688}
    .fil7 {fill:#599ED3}
    .fil9 {fill:#5A9ED3}
    .fil15 {fill:#961AA5}
    .fil14 {fill:#DEA008}
    .fil3 {fill:#EA001B}
    .fil1 {fill:#EEEEEE}
    .fil12 {fill:#F0AF0C}
    .fil8 {fill:#F1F1F1}
    .fil2 {fill:#F79E1B}
    .fil13 {fill:#FDDA62}
    .fil4 {fill:#FF5F00}
    .fil10 {fill:#FFC800}
    .fil0 {fill:white}
    .fil5 {fill:white}
   ]]>
  </style>
 </defs>
 <g id="Capa_x0020_1">
  <metadata id="CorelCorpID_0Corel-Layer"/>
  <g id="_3009615283568">
   <g>
    <path class="fil0" d="M103.262 30.259c-0.822,0.401 -1.144,0.827 -2.699,1.371 -1.072,0.374 -2.147,0.618 -3.361,0.685 -3.532,0.198 -6.512,-1.117 -8.882,-3.273 -0.177,-0.161 -0.322,-0.308 -0.471,-0.493 -0.543,-0.675 -0.778,-0.875 -1.334,-1.755 -2.432,-3.843 -2.432,-8.779 0,-12.621 0.553,-0.874 0.784,-1.059 1.305,-1.718 0.563,-0.712 1.946,-1.766 2.828,-2.255 1.873,-1.039 4.032,-1.689 6.554,-1.548 1.715,0.095 3.271,0.539 4.744,1.293 0.241,0.124 0.406,0.214 0.667,0.365 0.227,0.131 0.435,0.294 0.649,0.398 0.398,-0.032 2.391,-1.817 6.038,-2.049 6.561,-0.419 12.634,4.677 12.634,11.825 0,8.809 -9.479,15.007 -18.006,10.126 -0.24,-0.138 -0.413,-0.331 -0.666,-0.351zm-27.681 -28.329c-1.561,0.325 -2.719,1.579 -2.743,3.369 -0.027,2.03 0,4.081 0,6.114l0 21.486c0,0.963 -0.061,2.144 0.011,3.08 0.125,1.621 1.405,2.936 2.992,3.104 0.721,0.077 5.076,0.022 6.177,0.022l45.997 0c0.819,0 2.316,0.084 3.055,-0.066 0.409,-0.083 0.749,-0.22 1.065,-0.412 0.407,-0.247 0.526,-0.404 0.833,-0.71 0.486,-0.483 0.806,-1.337 0.818,-2.249 0.028,-2.03 0,-4.081 0,-6.114l0 -21.486c0,-0.963 0.061,-2.144 -0.011,-3.081 -0.125,-1.621 -1.404,-2.935 -2.992,-3.103 -0.721,-0.077 -5.076,-0.022 -6.177,-0.022l-45.997 0c-0.816,0 -2.309,-0.082 -3.028,0.068z"/>
    <path class="fil1 str0" d="M75.581 1.93c0.719,-0.15 2.212,-0.068 3.028,-0.068l45.997 0c1.101,0 5.456,-0.055 6.177,0.022 1.588,0.168 2.867,1.482 2.992,3.103 0.072,0.937 0.011,2.118 0.011,3.081l0 21.486c0,2.033 0.028,4.084 0,6.114 -0.012,0.912 -0.332,1.766 -0.818,2.249 -0.307,0.306 -0.426,0.463 -0.833,0.71 -0.316,0.192 -0.656,0.329 -1.065,0.412 -0.739,0.15 -2.236,0.066 -3.055,0.066l-45.997 0c-1.101,0 -5.456,0.055 -6.177,-0.022 -1.587,-0.168 -2.867,-1.483 -2.992,-3.104 -0.072,-0.936 -0.011,-2.117 -0.011,-3.08l0 -21.486c0,-2.033 -0.027,-4.084 0,-6.114 0.024,-1.79 1.182,-3.044 2.743,-3.369zm-4.435 2.626l0 31.526c0.139,0.37 0.079,1.153 0.657,2.145 1.349,2.318 3.297,2.57 5.777,2.57l50.242 0c1.776,0 3.498,0.196 4.961,-0.558 3.307,-1.704 2.695,-5.131 2.695,-8.433l0 -22.323c0,-3.582 0.664,-6.697 -2.522,-8.61 -1.51,-0.906 -2.98,-0.703 -4.876,-0.703 -16.727,0 -33.453,0 -50.179,0 -1.97,0 -3.241,-0.105 -4.661,0.92 -1.881,1.357 -1.8,2.87 -2.094,3.466z"/>
    <path class="fil2 str1" d="M103.262 10.708c-0.055,0.143 0.003,0.068 -0.103,0.16 0.464,0.049 0.915,0.502 1.173,0.747 1.102,1.041 1.653,1.511 2.538,3.057 2.519,4.398 1.814,10.377 -1.655,13.826 -0.178,0.178 -0.317,0.297 -0.494,0.472 -0.333,0.327 -0.951,0.924 -1.396,1.108 -0.002,0.001 -0.075,0.051 -0.084,0.033 -0.006,-0.013 -0.028,0.008 -0.04,0.015l0.061 0.133c0.253,0.02 0.426,0.213 0.666,0.351 8.527,4.881 18.006,-1.317 18.006,-10.126 0,-7.148 -6.073,-12.244 -12.634,-11.825 -3.647,0.232 -5.64,2.017 -6.038,2.049z"/>
    <path class="fil3 str2" d="M103.262 30.259l-0.061 -0.133c-0.779,-0.44 -1.354,-1.139 -1.917,-1.699l-0.812 -0.991c-2.797,-3.892 -3.028,-9.14 -0.461,-13.272 0.116,-0.186 0.25,-0.352 0.365,-0.534 0.057,-0.089 0.118,-0.178 0.185,-0.267 0.587,-0.781 0.483,-0.597 1.094,-1.227 0.167,-0.173 0.316,-0.277 0.453,-0.452 0.151,-0.193 -0.031,-0.051 0.224,-0.223 0.17,-0.115 0.098,-0.052 0.258,-0.195l0.255 -0.197c0.171,-0.126 0.083,-0.106 0.314,-0.201 0.106,-0.092 0.048,-0.017 0.103,-0.16 -0.214,-0.104 -0.422,-0.267 -0.649,-0.398 -0.261,-0.151 -0.426,-0.241 -0.667,-0.365 -1.473,-0.754 -3.029,-1.198 -4.744,-1.293 -2.522,-0.141 -4.681,0.509 -6.554,1.548 -0.882,0.489 -2.265,1.543 -2.828,2.255 -0.521,0.659 -0.752,0.844 -1.305,1.718 -2.432,3.842 -2.432,8.778 0,12.621 0.556,0.88 0.791,1.08 1.334,1.755 0.149,0.185 0.294,0.332 0.471,0.493 2.37,2.156 5.35,3.471 8.882,3.273 1.214,-0.067 2.289,-0.311 3.361,-0.685 1.555,-0.544 1.877,-0.97 2.699,-1.371z"/>
    <path class="fil4 str3" d="M103.201 30.126c0.012,-0.007 0.034,-0.028 0.04,-0.015 0.009,0.018 0.082,-0.032 0.084,-0.033 0.445,-0.184 1.063,-0.781 1.396,-1.108 0.177,-0.175 0.316,-0.294 0.494,-0.472 3.469,-3.449 4.174,-9.428 1.655,-13.826 -0.885,-1.546 -1.436,-2.016 -2.538,-3.057 -0.258,-0.245 -0.709,-0.698 -1.173,-0.747 -0.231,0.095 -0.143,0.075 -0.314,0.201l-0.255 0.197c-0.16,0.143 -0.088,0.08 -0.258,0.195 -0.255,0.172 -0.073,0.03 -0.224,0.223 -0.137,0.175 -0.286,0.279 -0.453,0.452 -0.611,0.63 -0.507,0.446 -1.094,1.227 -0.067,0.089 -0.128,0.178 -0.185,0.267 -0.115,0.182 -0.249,0.348 -0.365,0.534 -2.567,4.132 -2.336,9.38 0.461,13.272l0.812 0.991c0.563,0.56 1.138,1.259 1.917,1.699z"/>
   </g>
   <g>
    <path class="fil5" d="M44.284 27.232l-3.651 0.023c0.222,-0.746 3.004,-7.143 3.39,-8.055 0.566,-1.338 1.153,-2.66 1.713,-4.014 0.144,-0.347 0.147,-0.8 0.342,-1.072 0.507,-0.706 3.896,-0.358 3.9,-0.356 0.201,0.311 1.308,5.867 1.497,6.731l1.34 6.394c0.064,0.235 0.09,0.099 0.146,0.371 -0.646,0.007 -2.723,0.092 -3.155,-0.08 -0.259,-0.434 -0.196,-1.668 -0.638,-1.944 -0.854,0 -3.581,-0.11 -4.223,0.039l-0.661 1.963zm-3.824 -10.32c-1.304,-0.335 -1.414,-0.736 -3.245,-0.641 -0.535,0.028 -1.144,0.141 -1.459,0.451 -0.496,0.488 -0.345,0.979 0.085,1.332 0.367,0.302 0.631,0.552 1.135,0.793 1.144,0.546 2.703,1.425 3.16,2.694 0.805,2.238 -0.522,3.975 -2.303,5.042 -0.856,0.513 -4.248,0.393 -5.516,0.307 -0.68,-0.046 -1.095,-0.201 -1.675,-0.286 -0.205,0.227 -0.024,0.249 -0.272,0.207 -0.145,-0.276 0.492,-2.428 0.582,-3.109 0.491,0.117 2.631,1.476 4.816,0.624 0.536,-0.208 0.99,-0.43 0.908,-1.126 -0.174,-1.472 -3.24,-1.845 -4.391,-3.652 -0.945,-1.483 -0.707,-3.173 0.482,-4.398 0.337,-0.348 0.761,-0.589 1.179,-0.882 0.984,-0.691 2.095,-0.583 3.45,-0.547 0.857,0.022 2.648,0.044 3.494,0.314l0.211 0.082c-0.18,1.005 -0.466,1.908 -0.641,2.795zm-16.1 10.32c0.386,-2.245 0.977,-4.509 1.459,-6.747 0.243,-1.125 0.477,-2.287 0.702,-3.417 0.163,-0.814 0.423,-2.903 0.841,-3.322l3.257 -0.033c-0.2,1.37 -0.512,2.809 -0.837,4.109 -0.341,1.361 -0.622,2.645 -0.913,4.046 -0.283,1.367 -0.564,2.724 -0.91,4.04 -0.312,1.191 0.017,1.148 -1.242,1.216 -0.658,0.035 -1.747,0.162 -2.357,0.108zm-8.04 -0.209c-0.299,-0.611 -2.606,-10.581 -2.882,-10.881 -0.93,-1.009 -3.199,-1.551 -4.623,-1.748 -0.131,-0.182 -0.152,-0.174 -0.17,-0.405 0.251,-0.249 0.356,-0.274 0.768,-0.274l5.275 0c2.049,0 1.941,1.613 2.408,3.913 0.168,0.834 0.882,4.795 1.158,5.21 0.176,-0.32 0.056,0.142 0.536,-1.018l1.407 -3.417c0.362,-0.862 1.55,-3.546 1.772,-4.465l0.032 -0.104c0.09,-0.293 3.214,-0.119 3.698,-0.119 -0.037,0.203 -0.706,1.634 -0.861,1.996 -1.564,3.639 -3.098,7.406 -4.678,11.018 -0.265,0.606 -0.376,0.401 -1.033,0.37 -0.612,-0.029 -2.379,0.096 -2.807,-0.076zm-11.735 -25.09c-1.56,0.325 -2.72,1.578 -2.744,3.369 -0.027,2.03 0,4.081 0,6.113l0 21.486c0,0.963 -0.06,2.143 0.012,3.08 0.125,1.619 1.405,2.935 2.992,3.103 0.72,0.077 5.075,0.022 6.177,0.022 15.331,0 30.663,0 45.994,0 2.478,0 3.414,0.345 4.953,-1.188 0.485,-0.483 0.806,-1.336 0.818,-2.249 0.027,-2.03 0,-4.081 0,-6.113l0 -21.486c0,-0.962 0.061,-2.143 -0.011,-3.079 -0.126,-1.622 -1.403,-2.936 -2.992,-3.104 -0.721,-0.076 -5.076,-0.022 -6.177,-0.022l-45.995 0c-0.816,0 -2.309,-0.082 -3.027,0.068z"/>
    <path class="fil1 str4" d="M4.585 1.933c0.718,-0.15 2.211,-0.068 3.027,-0.068l45.995 0c1.101,0 5.456,-0.054 6.177,0.022 1.589,0.168 2.866,1.482 2.992,3.104 0.072,0.936 0.011,2.117 0.011,3.079l0 21.486c0,2.032 0.027,4.083 0,6.113 -0.012,0.913 -0.333,1.766 -0.818,2.249 -1.539,1.533 -2.475,1.188 -4.953,1.188 -15.331,0 -30.663,0 -45.994,0 -1.102,0 -5.457,0.055 -6.177,-0.022 -1.587,-0.168 -2.867,-1.484 -2.992,-3.103 -0.072,-0.937 -0.012,-2.117 -0.012,-3.08l0 -21.486c0,-2.032 -0.027,-4.083 0,-6.113 0.024,-1.791 1.184,-3.044 2.744,-3.369zm-4.435 2.831l0 31.319c0.086,0.227 0.117,0.789 0.235,1.149 0.128,0.388 0.234,0.674 0.422,0.997 1.349,2.317 3.296,2.569 5.776,2.569l50.305 0c1.774,0 3.479,0.196 4.938,-0.58 3.298,-1.754 2.652,-5.199 2.652,-8.539l0 -22.322c0,-3.587 0.645,-6.668 -2.642,-8.552 -1.462,-0.838 -3.128,-0.632 -4.948,-0.632 -16.747,0 -33.494,0 -50.241,0 -2.417,0 -4.499,0.142 -5.839,2.507 -0.192,0.34 -0.3,0.624 -0.419,0.995 -0.108,0.333 -0.151,0.848 -0.239,1.089z"/>
    <path class="fil6 str5" d="M16.32 27.023c0.428,0.172 2.195,0.047 2.807,0.076 0.657,0.031 0.768,0.236 1.033,-0.37 1.58,-3.612 3.114,-7.379 4.678,-11.018 0.155,-0.362 0.824,-1.793 0.861,-1.996 -0.484,0 -3.608,-0.174 -3.698,0.119l-0.032 0.104c-0.222,0.919 -1.41,3.603 -1.772,4.465l-1.407 3.417c-0.48,1.16 -0.36,0.698 -0.536,1.018 -0.276,-0.415 -0.99,-4.376 -1.158,-5.21 -0.467,-2.3 -0.359,-3.913 -2.408,-3.913l-5.275 0c-0.412,0 -0.517,0.025 -0.768,0.274 0.018,0.231 0.039,0.223 0.17,0.405 1.424,0.197 3.693,0.739 4.623,1.748 0.276,0.3 2.583,10.27 2.882,10.881z"/>
    <path class="fil6 str5" d="M45.864 22.351c0.3,-2.023 1.116,-3.384 1.667,-5.082l0.479 0 0.13 0.257c0.035,0.099 0.059,0.188 0.091,0.296 0.267,0.9 0.713,3.68 0.824,4.529l-3.191 0zm-0.919 2.918c0.642,-0.149 3.369,-0.039 4.223,-0.039 0.442,0.276 0.379,1.51 0.638,1.944 0.432,0.172 2.509,0.087 3.155,0.08 -0.056,-0.272 -0.082,-0.136 -0.146,-0.371l-1.34 -6.394c-0.189,-0.864 -1.296,-6.42 -1.497,-6.731 -0.004,-0.002 -3.393,-0.35 -3.9,0.356 -0.195,0.272 -0.198,0.725 -0.342,1.072 -0.56,1.354 -1.147,2.676 -1.713,4.014 -0.386,0.912 -3.168,7.309 -3.39,8.055l3.651 -0.023 0.661 -1.963z"/>
    <path class="fil6 str5" d="M40.46 16.912c0.175,-0.887 0.461,-1.79 0.641,-2.795l-0.211 -0.082c-0.846,-0.27 -2.637,-0.292 -3.494,-0.314 -1.355,-0.036 -2.466,-0.144 -3.45,0.547 -0.418,0.293 -0.842,0.534 -1.179,0.882 -1.189,1.225 -1.427,2.915 -0.482,4.398 1.151,1.807 4.217,2.18 4.391,3.652 0.082,0.696 -0.372,0.918 -0.908,1.126 -2.185,0.852 -4.325,-0.507 -4.816,-0.624 -0.09,0.681 -0.727,2.833 -0.582,3.109 0.248,0.042 0.067,0.02 0.272,-0.207 0.58,0.085 0.995,0.24 1.675,0.286 1.268,0.086 4.66,0.206 5.516,-0.307 1.781,-1.067 3.108,-2.804 2.303,-5.042 -0.457,-1.269 -2.016,-2.148 -3.16,-2.694 -0.504,-0.241 -0.768,-0.491 -1.135,-0.793 -0.43,-0.353 -0.581,-0.844 -0.085,-1.332 0.315,-0.31 0.924,-0.423 1.459,-0.451 1.831,-0.095 1.941,0.306 3.245,0.641z"/>
    <path class="fil6 str5" d="M24.36 27.232c0.61,0.054 1.699,-0.073 2.357,-0.108 1.259,-0.068 0.93,-0.025 1.242,-1.216 0.346,-1.316 0.627,-2.673 0.91,-4.04 0.291,-1.401 0.572,-2.685 0.913,-4.046 0.325,-1.3 0.637,-2.739 0.837,-4.109l-3.257 0.033c-0.418,0.419 -0.678,2.508 -0.841,3.322 -0.225,1.13 -0.459,2.292 -0.702,3.417 -0.482,2.238 -1.073,4.502 -1.459,6.747z"/>
    <path class="fil0" d="M45.864 22.351l3.191 0c-0.111,-0.849 -0.557,-3.629 -0.824,-4.529 -0.032,-0.108 -0.056,-0.197 -0.091,-0.296l-0.13 -0.257 -0.479 0c-0.551,1.698 -1.367,3.059 -1.667,5.082z"/>
   </g>
   <g>
    <path class="fil5" d="M162.374 27.021c-2.605,0.568 -4.932,-4.112 -5.008,-6.527 -0.086,-2.703 2.149,-6.993 5.085,-6.591l-0.077 13.118zm3.494 -13.097c2.711,-0.216 4.929,4.044 4.95,6.563 0.022,2.565 -2.279,6.997 -4.973,6.577l0.023 -13.14zm0.175 18.278c2.855,-0.924 4.78,-1.338 6.752,-3.847 3.88,-4.938 3.767,-10.794 0.015,-15.757 -1.73,-2.288 -4.131,-2.991 -6.743,-3.82 3.291,-0.593 13.647,-0.398 16.675,0.872 8.858,3.717 9.087,17.843 -0.01,21.667 -3.083,1.297 -13.315,1.46 -16.689,0.885zm-19.506 -30.237c-3.65,0.882 -2.703,4.498 -2.703,9.678 0,3.716 -0.22,22.669 0.045,24.607 0.551,4.037 6.288,2.896 9.254,2.896 3.037,0 47.297,0.291 49.071,-0.148 3.507,-0.865 2.575,-4.899 2.575,-9.666 0,-3.716 0.22,-22.669 -0.045,-24.607 -0.549,-4.019 -6.3,-2.896 -9.254,-2.896 -2.976,0 -47.22,-0.28 -48.943,0.136z"/>
    <path class="fil7 str6" d="M166.043 32.202c3.374,0.575 13.606,0.412 16.689,-0.885 9.097,-3.824 8.868,-17.95 0.01,-21.667 -3.028,-1.27 -13.384,-1.465 -16.675,-0.872 2.612,0.829 5.013,1.532 6.743,3.82 3.752,4.963 3.865,10.819 -0.015,15.757 -1.972,2.509 -3.897,2.923 -6.752,3.847z"/>
    <path class="fil8 str0" d="M146.537 1.965c1.723,-0.416 45.967,-0.136 48.943,-0.136 2.954,0 8.705,-1.123 9.254,2.896 0.265,1.938 0.045,20.891 0.045,24.607 0,4.767 0.932,8.801 -2.575,9.666 -1.774,0.439 -46.034,0.148 -49.071,0.148 -2.966,0 -8.703,1.141 -9.254,-2.896 -0.265,-1.938 -0.045,-20.891 -0.045,-24.607 0,-5.18 -0.947,-8.796 2.703,-9.678zm-4.316 34.499c0.684,4.764 5.235,4.29 8.768,4.29l39.399 0c15.476,0 16.06,1.522 16.06,-10.082 0,-4.378 0,-8.755 0,-13.133 0,-14.771 2.09,-17.319 -8.824,-17.318l-39.399 0c-15.33,0 -16.06,-1.567 -16.06,10.082 0,3.925 -0.238,24.113 0.056,26.161z"/>
    <path class="fil7 str6" d="M162.374 27.021l0.077 -13.118c-2.936,-0.402 -5.171,3.888 -5.085,6.591 0.076,2.415 2.403,7.095 5.008,6.527z"/>
    <path class="fil9 str6" d="M165.845 27.064c2.694,0.42 4.995,-4.012 4.973,-6.577 -0.021,-2.519 -2.239,-6.779 -4.95,-6.563l-0.023 13.14z"/>
   </g>
   <g>
    <path class="fil5" d="M217.611 1.93c-1.561,0.326 -2.72,1.58 -2.743,3.37 -0.028,2.03 0,4.081 0,6.114l0 21.486c0,0.963 -0.062,2.144 0.011,3.08 0.125,1.62 1.404,2.936 2.992,3.104 0.72,0.076 5.076,0.022 6.177,0.022l45.997 0c0.819,0 2.315,0.084 3.054,-0.066 0.41,-0.083 0.75,-0.221 1.066,-0.412 0.407,-0.247 0.526,-0.405 0.833,-0.71 0.485,-0.484 0.806,-1.337 0.818,-2.249 0.027,-2.03 0,-4.082 0,-6.114l0 -21.487c0,-0.963 0.061,-2.143 -0.011,-3.08 -0.126,-1.621 -1.404,-2.935 -2.993,-3.104 -0.72,-0.076 -5.075,-0.021 -6.177,-0.021l-45.997 0c-0.815,0 -2.308,-0.082 -3.027,0.067z"/>
    <path class="fil1 str0" d="M217.583 1.929c0.718,-0.149 2.212,-0.068 3.027,-0.068l45.997 0c1.101,0 5.456,-0.054 6.177,0.022 1.589,0.168 2.867,1.483 2.992,3.104 0.072,0.936 0.012,2.117 0.012,3.08l0 21.487c0,2.032 0.027,4.083 0,6.114 -0.013,0.912 -0.333,1.765 -0.819,2.249 -0.306,0.305 -0.425,0.463 -0.832,0.71 -0.316,0.191 -0.656,0.329 -1.066,0.412 -0.739,0.15 -2.236,0.066 -3.055,0.066l-45.996 0c-1.102,0 -5.457,0.054 -6.178,-0.022 -1.587,-0.168 -2.866,-1.484 -2.991,-3.104 -0.073,-0.937 -0.012,-2.117 -0.012,-3.08l0 -21.486c0,-2.033 -0.027,-4.084 0,-6.114 0.024,-1.79 1.182,-3.044 2.744,-3.37zm-4.435 2.626l0 31.526c0.139,0.37 0.079,1.153 0.656,2.146 1.349,2.317 3.297,2.569 5.777,2.569l50.243 0c1.775,0 3.498,0.196 4.961,-0.557 3.307,-1.704 2.694,-5.132 2.694,-8.434l0 -22.323c0,-3.581 0.665,-6.697 -2.522,-8.609 -1.51,-0.906 -2.979,-0.704 -4.876,-0.704 -16.726,0 -33.453,0 -50.178,0 -1.971,0 -3.241,-0.105 -4.662,0.921 -1.881,1.357 -1.799,2.87 -2.093,3.465z"/>
    <g>
     <path class="fil10 str7" d="M233.797 10.738c-0.402,3.763 0.403,11.131 1.437,15.266l0.745 1.733 1.44 -7.018 4.612 -0.007c0.976,0.161 0.562,0.928 1.035,1.617 0.632,-1.108 3.054,-2.654 4.007,-3.768 -0.891,-1.613 -1.993,-2.458 -2.999,-3.898l-0.813 1.428 -4.863 -0.012c0.335,-2.73 0.606,-2.543 3.323,-2.675 2.193,-0.107 3.863,-0.205 5.961,0.397 -0.017,-0.327 0.37,-0.281 -1.168,-0.939 -4.039,-1.728 -8.344,-2.793 -12.717,-2.124z"/>
     <path class="fil10 str7" d="M238.863 28.965l-2.482 0.225c0.333,0.977 0.754,1.772 1.208,2.44 0.676,0.994 0.753,1.196 1.739,1.357 3.196,-2.018 6.801,-4.076 9.283,-6.298 2.047,-1.831 6.447,-5.299 7.051,-9.112 -1.731,-1.068 -5.068,-3.102 -7.18,-3.687 0.985,1.166 2.076,1.4 1.934,3.74 -0.415,6.86 -6.334,6.147 -10.059,6.335 -0.589,1.601 -0.575,3.74 -1.494,5z"/>
     <path class="fil11" d="M235.979 27.737l-0.117 1.246 3.001 -0.018c0.919,-1.26 0.905,-3.399 1.494,-5 3.725,-0.188 9.644,0.525 10.059,-6.335 0.142,-2.34 -0.949,-2.574 -1.934,-3.74l-0.8 -0.089c-2.098,-0.602 -3.768,-0.504 -5.961,-0.397 -2.717,0.132 -2.988,-0.055 -3.323,2.675l4.863 0.012 0.813 -1.428c1.006,1.44 2.108,2.285 2.999,3.898 -0.953,1.114 -3.375,2.66 -4.007,3.768 -0.473,-0.689 -0.059,-1.456 -1.035,-1.617l-4.612 0.007 -1.44 7.018z"/>
     <path class="fil12" d="M239.284 33.646l0.044 -0.659c-0.986,-0.161 -1.063,-0.363 -1.739,-1.357 -0.454,-0.668 -0.875,-1.463 -1.208,-2.44l2.482 -0.225 -3.001 0.018 0.117 -1.246 -0.745 -1.733c-1.034,-4.135 -1.839,-11.503 -1.437,-15.266l-0.02 -1.106c-0.307,0.422 -0.079,-0.002 -0.299,0.661 -0.002,0.005 -0.19,0.706 -0.198,0.738 -1.207,5.248 -1.44,16.923 0.044,21.176 1.237,3.544 4.933,1.672 5.96,1.439z"/>
     <path class="fil13" d="M233.777 9.632l0.02 1.106c4.373,-0.669 8.678,0.396 12.717,2.124 1.538,0.658 1.151,0.612 1.168,0.939l0.8 0.089c2.112,0.585 5.449,2.619 7.18,3.687l1.431 0.68c-1.333,-2.011 -8.538,-6.757 -11.064,-8.011 -2.158,-1.072 -12.116,-7.206 -12.252,-0.614z"/>
     <path class="fil14" d="M239.328 32.987l-0.044 0.659c4.548,-2.268 5.728,-1.933 11.91,-5.908 1.583,-1.018 6.677,-4.279 7.081,-6.173 0.391,-1.832 -0.245,-2.688 -1.182,-3.308l-1.431 -0.68c-0.604,3.813 -5.004,7.281 -7.051,9.112 -2.482,2.222 -6.087,4.28 -9.283,6.298z"/>
    </g>
   </g>
   <path class="fil5" d="M288.602 1.931c-1.562,0.325 -2.72,1.58 -2.744,3.369 -0.027,2.03 0,4.082 0,6.114l0 21.486c0,0.963 -0.061,2.144 0.012,3.08 0.125,1.621 1.404,2.936 2.991,3.104 0.721,0.077 5.076,0.022 6.178,0.022l45.996 0c0.819,0 2.316,0.084 3.055,-0.065 0.41,-0.084 0.749,-0.221 1.066,-0.413 0.407,-0.247 0.526,-0.404 0.832,-0.71 0.486,-0.483 0.806,-1.336 0.819,-2.249 0.027,-2.03 0,-4.081 0,-6.114l0 -21.486c0,-0.963 0.06,-2.144 -0.012,-3.08 -0.125,-1.622 -1.403,-2.936 -2.992,-3.104 -0.721,-0.076 -5.076,-0.022 -6.177,-0.022l-45.997 0c-0.815,0 -2.309,-0.082 -3.027,0.068z"/>
   <path class="fil1 str0" d="M288.573 1.93c0.718,-0.15 2.212,-0.068 3.027,-0.068l45.997 0c1.101,0 5.457,-0.055 6.177,0.022 1.589,0.168 2.867,1.482 2.992,3.103 0.073,0.937 0.012,2.118 0.012,3.081l0 21.486c0,2.033 0.027,4.084 0,6.114 -0.012,0.912 -0.333,1.766 -0.818,2.249 -0.307,0.306 -0.426,0.463 -0.833,0.71 -0.316,0.192 -0.656,0.329 -1.066,0.412 -0.739,0.15 -2.235,0.066 -3.054,0.066l-45.997 0c-1.102,0 -5.457,0.055 -6.177,-0.022 -1.588,-0.168 -2.867,-1.483 -2.992,-3.104 -0.073,-0.936 -0.012,-2.117 -0.012,-3.08l0 -21.486c0,-2.033 -0.027,-4.084 0,-6.114 0.024,-1.79 1.182,-3.044 2.744,-3.369zm-4.435 2.626l0 31.526c0.139,0.37 0.079,1.153 0.656,2.145 1.349,2.318 3.297,2.57 5.777,2.57l50.243 0c1.775,0 3.498,0.196 4.961,-0.558 3.307,-1.704 2.694,-5.131 2.694,-8.433l0 -22.323c0,-3.582 0.665,-6.697 -2.522,-8.61 -1.51,-0.906 -2.979,-0.703 -4.876,-0.703 -16.726,0 -33.452,0 -50.178,0 -1.971,0 -3.241,-0.105 -4.662,0.92 -1.88,1.357 -1.799,2.87 -2.093,3.466z"/>
   <g>
    <path class="fil15" d="M306.129 33.728c-0.18,-1.136 0.503,-1.93 1.001,-2.494 0.327,-0.371 1.328,-1.323 2.043,-1.416 -0.333,1.254 -1.717,4.232 -3.044,3.91zm15.306 -14.32c0.942,-0.29 0.436,4.208 -1.215,4.322 -0.693,0.048 -0.481,-0.488 -0.373,-0.964 0.227,-1.005 0.593,-3.051 1.588,-3.358zm-5.014 0.52c1.029,-0.301 0.139,1.87 0.026,2.238 -0.2,0.652 -0.548,2.024 -1.265,1.919 -1.083,-0.158 -0.431,-3.668 1.239,-4.157zm1.144 8.083c-0.002,0.516 -0.03,0.599 0.227,0.913 0.76,0.138 0.834,-0.5 1.033,-1.041 0.505,-0.305 3.105,-0.47 3.911,-0.563 0.662,-0.077 1.312,-0.146 1.957,-0.239 0.707,-0.103 1.428,-0.131 1.599,-0.605 0.478,-1.328 -2.435,-0.81 -3.245,-0.71 -1.289,0.16 -2.643,0.397 -3.969,0.464l0.302 -1.724c0.302,0.283 0.717,0.585 1.381,0.508 1.403,-0.162 2.047,-2.151 2.317,-3.413 0.213,-0.996 0.385,-2.453 -0.161,-3.263 -0.247,-0.365 -0.778,-0.552 -1.381,-0.346 -0.601,0.205 -0.65,0.492 -0.985,0.872 -0.134,-0.297 0.219,-0.409 -0.321,-0.636 -0.326,-0.138 -0.587,-0.107 -0.756,0.169 -0.417,0.677 -0.648,4.718 -1.302,5.232 -0.758,0.596 -0.558,-0.945 -0.472,-1.343 0.163,-0.757 0.928,-3.115 0.658,-3.588 -0.043,-0.076 -0.817,-0.833 -1.163,0.252 -0.522,-0.174 -0.935,-0.433 -1.59,-0.158 -1.191,0.498 -1.867,2.338 -2.147,3.582 -0.564,2.509 0.492,4.019 1.896,3.294 0.467,-0.242 0.574,-0.539 0.858,-0.958 0.588,1.076 0.882,0.755 1.904,0.379 -0.378,1.697 0.309,1.227 -3.367,1.841 -1.071,0.178 -2.124,0.381 -3.2,0.523 0.22,-1.529 2.262,-7.055 2.141,-8.48 -1.692,-0.211 -1.836,1.408 -2.246,2.717 -0.235,0.751 -0.775,2.437 -1.591,2.745 -1.474,0.557 0.213,-2.857 0.203,-3.748 -0.008,-0.79 -0.955,-1.041 -1.193,-0.511 -0.119,0.264 -0.062,0.681 -0.138,0.993 -0.066,0.266 -0.193,0.529 -0.286,0.78 -0.315,0.843 -0.935,2.676 -0.572,3.711 0.533,1.519 2.463,-0.011 2.675,-0.342 -0.097,0.52 -0.349,1.152 -0.518,1.679 -0.277,0.86 -0.203,0.876 -1.042,1.222 -1.806,0.744 -3.973,2.717 -4.261,4.733 -0.205,1.434 0.602,2.616 2.059,2.262 2.155,-0.524 3.217,-3.356 3.864,-5.131 0.312,-0.857 0.265,-0.803 1.215,-1.05 0.604,-0.156 1.25,-0.291 1.862,-0.403 1.136,-0.209 2.702,-0.565 3.844,-0.619z"/>
    <path class="fil16" d="M315.368 11.563c0.836,0.011 0.356,0.592 0.84,0.963 0.321,0.246 1.115,0.299 1.351,-0.044 0.57,-0.83 -1.247,-1.236 -1.728,-1.576 -0.822,-0.58 -0.608,-1.725 0.483,-1.93 1.123,-0.212 2.08,0.339 1.888,1.489 -0.78,0.279 -0.484,-0.385 -0.905,-0.762 -0.439,-0.392 -0.955,-0.19 -1.262,0.129 -0.006,0.907 0.853,0.871 1.515,1.218 0.593,0.31 1.13,0.923 0.613,1.71 -0.771,1.173 -3.431,0.457 -2.795,-1.197zm5.497 -2.595c0.242,-0.142 0.388,0.025 0.354,0.311 -0.038,0.313 -2.042,3.845 -2.165,3.917 -0.322,0.191 -0.688,0.048 -0.111,-0.925l1.699 -3.096c0.155,-0.24 0.027,-0.093 0.223,-0.207zm-6.786 7.616c0.873,0.017 1.167,-0.721 1.798,-0.917 0.917,-0.286 3.286,1.308 6.006,-1.588 1.952,-2.078 1.643,-5.589 -0.895,-7.401 -2.792,-1.994 -5.966,-0.679 -7.403,1.435 -0.8,1.178 -1.112,2.733 -0.556,4.328 0.112,0.325 0.268,0.635 0.418,0.913 0.219,0.404 0.385,0.527 0.588,0.811 0.385,0.539 -0.142,1.599 0.044,2.419z"/>
    <path class="fil15" d="M325.179 20.363c0.115,-0.493 0.909,-2.273 1.478,-1.775 0.611,0.535 -0.757,1.77 -1.478,1.775zm-0.281 1.32c1.032,-0.188 1.728,-0.598 2.218,-1.172 2.444,-2.861 -0.888,-5.123 -2.992,-1.058 -1.649,3.187 -0.713,6.978 2.605,4.534 0.635,-0.469 1.384,-1.11 0.681,-2.08 -0.689,0.232 -3.08,3.059 -2.512,-0.224z"/>
   </g>
  </g>
 </g>
</svg>
