<?xml version="1.0" standalone="no"?>
<!DOCTYPE svg PUBLIC "-//W3C//DTD SVG 20010904//EN"
 "http://www.w3.org/TR/2001/REC-SVG-20010904/DTD/svg10.dtd">
<svg version="1.0" xmlns="http://www.w3.org/2000/svg"
 width="386.000000pt" height="221.000000pt" viewBox="0 0 386.000000 221.000000"
 preserveAspectRatio="xMidYMid meet">

<g transform="translate(0.000000,221.000000) scale(0.100000,-0.100000)"
fill="#000000" stroke="none">
<path d="M2696 2196 c-36 -10 -62 -28 -104 -70 -65 -66 -93 -77 -136 -51 -102
61 -174 82 -191 55 -3 -6 5 -10 19 -10 14 0 47 -18 78 -42 l53 -43 -42 -3
c-44 -3 -79 10 -182 68 -55 30 -133 41 -146 20 -3 -6 4 -10 17 -10 29 0 66
-23 142 -89 69 -59 152 -91 235 -91 65 0 116 21 197 79 72 52 144 69 205 50
35 -11 50 -24 75 -64 18 -27 45 -65 62 -82 26 -29 37 -33 81 -33 41 0 52 4 62
21 17 33 -38 135 -109 200 -100 91 -210 125 -316 95z"/>
<path d="M2946 2179 c80 -50 143 -118 175 -187 16 -35 29 -72 29 -81 0 -32
-38 -56 -90 -56 -56 0 -94 23 -125 75 -11 18 -36 51 -56 72 -32 33 -43 38 -81
38 -59 0 -102 -15 -160 -56 -57 -40 -122 -74 -143 -74 -17 0 -20 -16 -5 -25
22 -13 8 -31 -32 -42 -63 -17 -151 -74 -167 -107 -9 -20 -11 -37 -5 -55 8 -22
4 -31 -28 -63 -24 -24 -43 -55 -50 -83 -12 -45 -13 -45 -55 -45 -24 0 -71 -9
-105 -21 -61 -20 -63 -20 -177 -3 -82 13 -177 18 -326 19 l-210 0 -100 -34
c-114 -40 -225 -109 -278 -174 -19 -24 -69 -88 -110 -143 -150 -202 -235 -274
-325 -274 -60 0 -100 20 -148 72 -58 62 -79 130 -79 248 0 88 3 101 34 165 65
131 199 236 357 280 35 9 119 18 209 22 83 3 155 9 160 13 6 4 47 -4 93 -18
75 -23 84 -24 98 -10 14 14 14 18 -1 44 -30 55 -62 93 -71 86 -5 -3 8 12 29
33 l38 40 18 -24 c18 -23 18 -23 18 48 0 39 -2 71 -4 71 -2 0 -18 -6 -36 -14
-31 -12 -33 -17 -30 -52 3 -37 2 -38 -8 -11 -14 35 -31 34 -63 -4 -28 -33 -32
-68 -15 -117 12 -35 63 -78 100 -85 24 -4 24 -4 -2 -6 -15 0 -39 9 -55 21 -42
31 -114 101 -114 110 0 18 79 94 134 130 60 39 100 48 109 26 3 -8 6 -5 6 5 1
10 -4 28 -10 39 -10 18 -17 20 -72 13 -78 -8 -88 -14 -172 -95 -57 -55 -79
-69 -120 -78 -403 -91 -458 -112 -567 -210 -56 -50 -133 -162 -159 -231 -26
-70 -37 -232 -20 -311 28 -128 116 -251 216 -300 39 -20 65 -25 120 -25 88 1
132 22 248 115 l85 69 -50 -107 c-28 -59 -58 -114 -67 -123 -9 -9 -47 -27 -84
-39 -78 -25 -137 -71 -137 -105 0 -13 9 -51 19 -86 11 -35 23 -104 27 -153 7
-89 7 -90 52 -139 26 -27 66 -60 90 -74 41 -24 44 -25 62 -8 15 13 23 15 33 7
8 -7 18 -7 27 -2 8 6 27 10 42 10 35 0 42 14 23 44 -15 23 -47 38 -130 62 -39
12 -64 62 -71 145 -4 53 -2 69 15 97 25 38 20 37 137 50 135 15 216 62 305
175 l38 48 -65 61 c-95 89 -121 154 -94 238 7 21 8 17 9 -20 3 -109 8 -117
233 -323 96 -87 112 -107 150 -184 35 -71 43 -97 46 -157 5 -87 17 -103 120
-151 40 -20 90 -49 111 -65 45 -36 95 -49 104 -26 5 13 11 14 32 4 20 -9 28
-8 42 5 10 8 29 17 43 19 20 2 24 8 22 28 -4 34 -7 36 -96 60 -105 28 -130 42
-172 98 l-35 47 6 190 c6 204 22 355 38 355 6 0 7 -30 3 -80 l-7 -79 58 -29
c98 -50 157 -63 279 -63 121 1 308 23 392 47 41 11 52 19 48 30 -5 13 8 15 89
12 52 -2 95 0 95 3 0 17 -98 92 -143 110 -19 8 -26 16 -22 26 4 11 1 13 -11 9
-14 -6 -16 -1 -10 34 4 26 2 40 -5 40 -7 0 -8 11 -4 29 5 22 2 30 -10 33 -12
2 -8 14 21 56 19 30 37 52 40 50 2 -3 -1 -20 -6 -39 -16 -55 -12 -147 8 -181
9 -16 47 -51 83 -78 52 -38 74 -62 104 -117 45 -82 44 -81 56 -63 8 12 12 12
16 2 11 -28 57 -74 92 -91 20 -11 65 -51 100 -91 39 -43 69 -69 77 -66 25 10
132 -122 134 -163 0 -8 7 -22 16 -32 13 -14 20 -15 34 -7 24 15 94 -25 120
-69 17 -29 24 -33 64 -33 31 0 46 5 50 16 4 12 13 14 31 10 18 -5 27 -2 31 9
4 8 16 15 28 15 32 0 37 9 21 39 -21 41 -35 49 -105 60 -76 12 -75 11 -168
166 -85 142 -130 230 -142 280 -6 22 -22 80 -37 129 l-28 88 25 20 c14 10 41
29 60 41 56 36 84 106 31 77 -28 -15 -26 -3 9 49 35 52 42 100 13 93 -10 -2
-12 15 -10 70 3 63 6 73 22 73 13 0 21 -12 29 -39 9 -30 18 -41 39 -47 15 -4
36 -18 46 -31 19 -22 20 -22 40 -4 11 10 26 35 32 55 6 20 21 49 31 64 41 57
-12 80 -61 26 -32 -34 -44 -27 -35 21 8 38 25 46 64 30 25 -10 34 -10 56 5 25
16 54 69 54 100 0 12 -8 15 -32 13 -38 -4 -50 19 -14 28 38 9 32 34 -18 83
-26 26 -60 77 -86 129 -62 127 -141 242 -166 242 -7 0 -20 13 -28 28 -27 53
-132 140 -188 157 -78 23 -87 18 -32 -16z m-1776 -243 c0 -7 -7 -19 -15 -26
-19 -16 -41 1 -32 24 8 20 47 21 47 2z m1290 -160 c0 -7 -6 -19 -14 -25 -7 -6
-21 -31 -31 -56 -17 -47 -35 -59 -35 -26 0 30 19 73 42 99 24 25 38 28 38 8z
m500 -32 c0 -9 -51 -94 -57 -94 -9 0 7 51 24 76 14 22 33 32 33 18z m-154 -68
c-4 -19 -11 -38 -17 -42 -10 -6 -3 60 8 79 10 18 15 -4 9 -37z m533 35 c12 -8
12 -13 -3 -35 -17 -27 -40 -34 -51 -16 -3 5 -20 13 -38 18 l-32 8 45 16 c54
20 61 20 79 9z m-260 -22 c-24 -13 -42 -64 -35 -95 4 -15 34 -52 67 -84 79
-76 76 -96 -5 -25 -78 69 -94 100 -77 155 11 37 48 76 60 64 3 -3 -1 -10 -10
-15z m-784 -139 c-10 -11 -20 -18 -23 -15 -3 3 3 14 13 25 10 11 20 18 23 15
3 -3 -3 -14 -13 -25z m982 15 c20 -8 34 -18 31 -20 -3 -3 -25 3 -49 14 -52 23
-35 28 18 6z m-475 -27 c-7 -7 -12 -8 -12 -2 0 14 12 26 19 19 2 -3 -1 -11 -7
-17z m112 -13 c-4 -8 -8 -15 -10 -15 -2 0 -4 7 -4 15 0 8 4 15 10 15 5 0 7 -7
4 -15z m371 -15 c18 -8 18 -9 -5 -9 -14 0 -32 4 -40 9 -12 8 -12 10 5 9 11 0
29 -4 40 -9z m-189 -71 c28 -31 12 -30 -25 1 -25 22 -29 27 -13 23 11 -3 28
-14 38 -24z m199 22 c-16 -15 -65 -25 -65 -13 0 11 21 19 55 21 12 1 15 -3 10
-8z m-197 -138 c17 -26 28 -51 25 -56 -7 -12 -19 1 -46 56 -31 61 -18 61 21 0z
m-1913 -3 c-3 -5 -14 -10 -23 -9 -14 0 -13 2 3 9 27 11 27 11 20 0z m1905
-149 c0 -20 -3 -46 -6 -58 -12 -43 -24 -11 -24 60 1 65 2 70 15 53 8 -11 15
-36 15 -55z m-1992 12 c-15 -15 -31 -23 -35 -19 -9 8 32 46 50 46 7 0 -1 -12
-15 -27z m1455 -25 c-3 -27 -10 -48 -16 -48 -6 0 -7 16 -3 42 12 75 27 79 19
6z m602 -5 c-9 -37 -18 -20 -9 19 4 18 9 27 11 20 3 -7 2 -24 -2 -39z m-1798
-246 c40 -45 68 -88 79 -119 23 -70 12 -82 -18 -17 -14 30 -47 79 -73 109 -26
29 -54 68 -61 86 -17 40 -17 56 -1 30 7 -10 40 -51 74 -89z m1430 -24 c16 -35
38 -62 65 -80 53 -36 76 -68 83 -118 l6 -40 -30 55 c-19 35 -45 66 -75 87 -52
37 -96 114 -95 165 0 33 1 33 11 8 6 -14 22 -49 35 -77z m-887 46 c36 -19 51
-21 113 -15 51 5 69 4 61 -4 -17 -17 -117 -24 -156 -11 -20 7 -44 21 -53 31
-23 25 -15 25 35 -1z m-1283 -466 c-3 -10 -5 -4 -5 12 0 17 2 24 5 18 2 -7 2
-21 0 -30z m932 -153 c1 -13 0 -13 -9 0 -5 8 -9 24 -9 35 l0 20 9 -20 c5 -11
9 -27 9 -35z m1691 -54 c10 -13 10 -16 -3 -16 -8 0 -22 12 -32 26 -16 24 -16
25 3 15 10 -5 24 -17 32 -25z m288 -75 c3 -8 -1 -12 -9 -9 -7 2 -15 10 -17 17
-3 8 1 12 9 9 7 -2 15 -10 17 -17z m-50 -9 c3 -9 -2 -13 -14 -10 -9 1 -19 9
-22 16 -3 9 2 13 14 10 9 -1 19 -9 22 -16z m-1574 -17 c3 -8 2 -15 -3 -15 -5
0 -14 7 -21 15 -10 12 -10 15 3 15 8 0 17 -7 21 -15z m1499 0 c9 -21 -9 -28
-27 -9 -21 20 -20 24 3 24 10 0 21 -7 24 -15z m-1563 -10 c7 -9 10 -18 7 -21
-9 -9 -48 16 -42 27 9 13 21 11 35 -6z m-982 -13 c2 -7 -2 -10 -12 -6 -9 3
-16 11 -16 16 0 13 23 5 28 -10z m-63 -2 c3 -5 2 -10 -4 -10 -5 0 -13 5 -16
10 -3 6 -2 10 4 10 5 0 13 -4 16 -10z m975 0 c0 -5 -6 -10 -14 -10 -8 0 -18 5
-21 10 -3 6 3 10 14 10 12 0 21 -4 21 -10z m-1025 -11 c12 -19 -5 -23 -22 -6
-16 16 -16 17 -1 17 9 0 20 -5 23 -11z"/>
<path d="M1073 1782 c-9 -15 -7 -21 8 -30 17 -11 19 -9 19 18 0 34 -10 38 -27
12z"/>
<path d="M2475 694 c-39 -13 -139 -34 -227 -46 -124 -18 -155 -25 -146 -35 6
-7 21 -13 34 -13 13 0 24 -2 24 -5 0 -2 -13 -26 -30 -52 -36 -57 -38 -73 -5
-73 l24 0 -24 -52 c-14 -29 -25 -66 -25 -81 0 -15 -9 -46 -21 -68 -13 -27 -18
-50 -14 -69 8 -34 18 -44 69 -60 22 -7 55 -22 73 -33 32 -19 35 -19 53 -2 16
15 22 15 35 5 11 -10 18 -10 29 -1 8 7 27 11 43 9 24 -3 28 1 31 24 5 41 -36
78 -86 78 -21 0 -43 5 -50 12 -43 43 30 196 157 332 93 98 161 133 212 106 28
-15 25 14 -3 34 -31 22 -71 19 -153 -10z m-174 -540 c12 -14 11 -16 -5 -13
-11 2 -21 10 -24 17 -5 17 13 15 29 -4z m64 6 c3 -5 -1 -10 -9 -10 -8 0 -18 5
-21 10 -3 6 1 10 9 10 8 0 18 -4 21 -10z m-125 -20 c0 -5 -7 -10 -15 -10 -8 0
-15 5 -15 10 0 6 7 10 15 10 8 0 15 -4 15 -10z"/>
</g>
</svg>
